<?xml version="1.0" standalone="no"?><!DOCTYPE svg PUBLIC "-//W3C//DTD SVG 1.1//EN" "http://www.w3.org/Graphics/SVG/1.1/DTD/svg11.dtd"><svg t="1673937432511" class="icon" viewBox="0 0 1024 1024" version="1.1" xmlns="http://www.w3.org/2000/svg" p-id="31541" xmlns:xlink="http://www.w3.org/1999/xlink" width="200" height="200"><path d="M146.048 804.576V197.088a130.176 130.176 0 0 1 130.176-130.176H213.6a130.176 130.176 0 0 0-130.176 130.176v607.488a130.176 130.176 0 0 0 130.176 130.176h62.624a130.176 130.176 0 0 1-130.176-130.176zM782.88 690.304a100.576 100.576 0 1 0-18.656 0 205.824 205.824 0 0 0-196.512 205.6c0 14.272 1.408 25.344 4.192 38.816h403.488a152.32 152.32 0 0 0 4-38.816 205.824 205.824 0 0 0-196.512-205.6z" fill="#1296db" p-id="31542"></path><path d="M645.76 670.752a150.592 150.592 0 0 1-22.784-80.096 150.752 150.752 0 0 1 150.592-150.592c27.52 0 53.28 7.552 75.52 20.512V197.088a130.176 130.176 0 0 0-130.176-130.176H318.656A130.176 130.176 0 0 0 188.48 197.088v607.488a130.176 130.176 0 0 0 130.176 130.176h204.928a276.832 276.832 0 0 1-3.744-44.576 253.248 253.248 0 0 1 125.92-219.424zM567.712 137.728c0-23.456 17.6-42.624 39.104-42.624h120.416c21.504 0 39.072 19.168 39.072 42.624v188.224s-4.128 42.624-18.784 42.624-60.768-128.544-80.512-128.544c-19.776 0-51.488 128.544-72.192 128.544-20.704 0-27.104-42.624-27.104-42.624V137.728z" fill="#1296db" p-id="31543"></path></svg>