<?xml version="1.0" standalone="no"?><!DOCTYPE svg PUBLIC "-//W3C//DTD SVG 1.1//EN" "http://www.w3.org/Graphics/SVG/1.1/DTD/svg11.dtd"><svg t="1673935942280" class="icon" viewBox="0 0 1024 1024" version="1.1" xmlns="http://www.w3.org/2000/svg" p-id="18056" xmlns:xlink="http://www.w3.org/1999/xlink" width="200" height="200"><path d="M172.885333 293.376L63.36 183.893333 123.690667 123.52l777.173333 777.173333-60.352 60.330667-141.312-141.312c-57.536 21.888-119.936 33.706667-187.2 33.706667-152.426667 0-279.829333-60.8-382.357333-161.386667a675.989333 675.989333 0 0 1-90.304-109.589333C24.341333 559.744 14.293333 541.76 9.002667 530.773333L0 512.106667l9.002667-18.666667c5.290667-10.986667 15.36-28.992 30.336-51.690667a675.989333 675.989333 0 0 1 90.304-109.568 642.794667 642.794667 0 0 1 43.242666-38.805333z m458.773334 458.773333l-9.429334-9.429333A250.688 250.688 0 0 1 512 768.106667c-140.074667 0-253.632-114.624-253.632-256 0-39.04 8.661333-76.010667 24.106667-109.12l-49.109334-49.130667a550.186667 550.186667 0 0 0-44.8 39.509333 591.466667 591.466667 0 0 0-78.890666 95.744c-5.376 8.149333-10.176 15.850667-14.378667 22.997334 4.202667 7.146667 9.002667 14.826667 14.378667 22.976a591.466667 591.466667 0 0 0 78.890666 95.765333c87.765333 86.08 194.922667 137.258667 323.434667 137.258667 42.154667 0 82.026667-5.504 119.658667-15.957334z m-75.306667-75.306666l-207.978667-207.957334a172.458667 172.458667 0 0 0-5.461333 43.221334c0 94.250667 75.712 170.666667 169.088 170.666666 15.36 0 30.208-2.069333 44.330667-5.930666zM324.778667 204.501333C382.336 182.613333 444.736 170.773333 512 170.773333c152.426667 0 279.829333 60.821333 382.357333 161.408a675.989333 675.989333 0 0 1 90.304 109.568c14.997333 22.698667 25.045333 40.704 30.336 51.690667l9.002667 18.666667-9.002667 18.666666c-5.290667 10.986667-15.36 28.970667-30.336 51.669334a675.989333 675.989333 0 0 1-90.304 109.589333 642.794667 642.794667 0 0 1-43.242666 38.805333l-60.48-60.501333a550.186667 550.186667 0 0 0 44.8-39.488 591.466667 591.466667 0 0 0 78.890666-95.765333c5.376-8.149333 10.176-15.829333 14.378667-22.976a517.930667 517.930667 0 0 0-14.378667-22.997334 591.466667 591.466667 0 0 0-78.890666-95.744c-87.765333-86.101333-194.922667-137.258667-323.434667-137.258666-42.154667 0-82.026667 5.504-119.658667 15.936l-67.541333-67.541334z m76.970666 76.970667A250.688 250.688 0 0 1 512 256.085333c140.074667 0 253.632 114.624 253.632 256 0 39.04-8.661333 76.032-24.106667 109.12l-65.92-65.877333a172.458667 172.458667 0 0 0 5.482667-43.221333c0-94.250667-75.712-170.666667-169.088-170.666667-15.36 0-30.208 2.069333-44.330667 5.930667l-65.898666-65.898667z" fill="#2c2c2c" p-id="18057"></path></svg>