<?xml version="1.0" standalone="no"?><!DOCTYPE svg PUBLIC "-//W3C//DTD SVG 1.1//EN" "http://www.w3.org/Graphics/SVG/1.1/DTD/svg11.dtd"><svg t="1673935160552" class="icon" viewBox="0 0 1024 1024" version="1.1" xmlns="http://www.w3.org/2000/svg" p-id="4345" xmlns:xlink="http://www.w3.org/1999/xlink" width="200" height="200"><path d="M464.7 134.71c-193.16 0-349.75 135.19-349.75 301.95 0 80.48 36.54 153.54 95.99 207.67l-8.84 27.78c-8.83 27.73-22.51 53.63-40.39 76.46-7.96 10.16 0.32 24.97 13.02 23.28l35.08-4.67a237.877 237.877 0 0 0 76.75-23.94l50.13-25.6c39.66 13.48 82.81 20.96 128.01 20.96 193.16 0 349.75-135.19 349.75-301.95S657.86 134.71 464.7 134.71z" fill="#ABCF79" p-id="4346"></path><path d="M455.63 305.96c161.54 0 298.12 90.99 343.1 216.11 10.2-28.37 15.72-58.49 15.72-89.7 0-168.9-160.65-305.81-358.82-305.81S96.82 263.47 96.82 432.37c0 31.21 5.54 61.29 15.74 89.64 45-125.09 181.56-216.05 343.07-216.05zM148.42 769.59c-2.23-3.14-4.39-6.33-6.49-9.54 0.77 3.91 3.12 7.36 6.49 9.54z" fill="#FFFFFF" opacity=".58" p-id="4347"></path><path d="M455.63 126.55c-13.8 0-27.38 0.73-40.77 2.02 178.96 17.27 318.04 146.66 318.04 303.8 0 157.09-139.01 286.45-317.9 303.77 13.34 1.29 26.88 2.04 40.63 2.04 198.17 0 358.82-136.92 358.82-305.81S653.8 126.55 455.63 126.55z" fill="#ABCF79" opacity=".5" p-id="4348"></path><path d="M814.45 448.68c-9.01 0-16.31-7.3-16.31-16.31 0-19.31-2.27-38.62-6.74-57.39-32.03-134.5-173.25-232.11-335.77-232.11-98.7 0-192.67 36.07-257.79 98.95-6.48 6.25-16.81 6.08-23.06-0.4-6.26-6.48-6.08-16.8 0.4-23.06 71.15-68.71 173.37-108.11 280.45-108.11 177.45 0 332.01 108.16 367.51 257.18 5.06 21.24 7.62 43.09 7.62 64.95 0 8.99-7.3 16.3-16.31 16.3zM156.18 788.28c-11.05 0-21.29-5.88-26.85-15.69-6.24-11.02-5.19-24.55 2.68-34.47 17.19-21.66 30.2-45.99 38.69-72.3l5.88-18.24c-4.23-4.04-8.35-8.19-12.33-12.39-2.66-2.8-5.26-5.66-7.81-8.55-49.68-56.3-75.94-123.48-75.94-194.28 0-9.01 7.3-16.31 16.31-16.31s16.31 7.3 16.31 16.31c0 62.73 23.44 122.44 67.78 172.7 2.3 2.6 4.65 5.18 7.05 7.72 5.78 6.11 11.92 12.09 18.25 17.78l7.86 7.07-12.32 38.2c-9.27 28.73-23.27 55.4-41.63 79.3l31.9-4.18c25.68-3.38 50.41-10.99 73.52-22.64l57.51-28.99 6.45 2.17c40.32 13.53 82.76 20.38 126.14 20.38 145.32 0 275.26-77.89 323.33-193.81 3.45-8.33 13-12.25 21.32-8.82 8.32 3.45 12.27 12.99 8.82 21.32C756.03 668.52 613.99 754.5 455.63 754.5c-44.59 0-88.29-6.71-130-19.95l-45.42 22.9c-26.39 13.3-54.64 22-83.95 25.85l-35.99 4.72c-1.37 0.17-2.74 0.26-4.09 0.26zM114 354.9c-1.92 0-3.86-0.34-5.76-1.06-8.43-3.19-12.67-12.59-9.49-21.02 6.73-17.81 15.34-35.22 25.6-51.76 4.75-7.65 14.82-10.01 22.46-5.26 7.65 4.75 10.01 14.8 5.26 22.46-9.15 14.75-16.82 30.26-22.8 46.1-2.48 6.52-8.68 10.54-15.27 10.54z" fill="#5E125C" p-id="4349"></path><path d="M692.13 473.06c130.61 0 236.49 90.24 236.49 201.56 0 53.72-24.71 102.49-64.91 138.62l5.98 18.54c5.97 18.51 15.22 35.8 27.31 51.04 5.38 6.78-0.22 16.67-8.8 15.54l-23.72-3.11a162.192 162.192 0 0 1-51.89-15.98l-33.9-17.09c-26.82 9-56 13.99-86.56 13.99-130.61 0-236.49-90.24-236.49-201.56s105.88-201.55 236.49-201.55z" fill="#F8F9FB" p-id="4350"></path><path d="M869.69 831.79l-5.98-18.54c40.2-36.13 64.91-84.9 64.91-138.63 0-111.32-105.88-201.56-236.49-201.56-15.34 0-30.32 1.29-44.85 3.67 109.15 17.87 191.64 99.65 191.64 197.89 0 53.72-24.71 102.49-64.91 138.63l5.98 18.54c4.73 14.68 11.6 28.53 20.24 41.26l12.36 6.23a162.27 162.27 0 0 0 51.89 15.98l23.72 3.11c8.59 1.13 14.18-8.76 8.8-15.54a162.275 162.275 0 0 1-27.31-51.04z" fill="#D0DDEA" opacity=".5" p-id="4351"></path><path d="M692.13 652.47c92.77 0 173.01 45.54 211.75 111.81 15.8-27.01 24.74-57.43 24.74-89.66 0-111.32-105.88-201.56-236.49-201.56s-236.5 90.24-236.5 201.56c0 32.24 8.93 62.68 24.72 89.7 38.73-66.28 118.99-111.85 211.78-111.85z" fill="#FFFFFF" p-id="4352"></path><path d="M889.51 914.76c-1.13 0-2.28-0.08-3.43-0.23l-23.72-3.11a178.243 178.243 0 0 1-57.11-17.58l-27.93-14.08c-27.38 8.45-56 12.73-85.19 12.73-139.4 0-252.8-97.74-252.8-217.87s113.41-217.87 252.8-217.87 252.8 97.74 252.8 217.87c0 53.14-22.12 103.7-62.53 143.44l2.81 8.72c5.39 16.7 13.65 32.15 24.56 45.9 6.6 8.32 7.49 19.67 2.25 28.91-4.65 8.24-13.25 13.17-22.51 13.17z m-5.28-21.64h0.08-0.08z m-104.28-48.56l39.97 20.15a145.28 145.28 0 0 0 46.67 14.37l8.37 1.1a178.015 178.015 0 0 1-20.79-43.39l-9.22-28.61 7.86-7.07c38.37-34.48 59.5-79.41 59.5-126.49 0-102.14-98.78-185.25-220.18-185.25s-220.18 83.1-220.18 185.25 98.78 185.25 220.18 185.25c27.99 0 55.37-4.42 81.37-13.14l6.45-2.17z" fill="#5E125C" p-id="4353"></path><path d="M802.22 680.01m-28.54 0a28.54 28.54 0 1 0 57.08 0 28.54 28.54 0 1 0-57.08 0Z" fill="#ABCF79" p-id="4354"></path><path d="M696.21 680.01m-28.54 0a28.54 28.54 0 1 0 57.08 0 28.54 28.54 0 1 0-57.08 0Z" fill="#ABCF79" p-id="4355"></path><path d="M590.19 680.01m-28.54 0a28.54 28.54 0 1 0 57.08 0 28.54 28.54 0 1 0-57.08 0Z" fill="#ABCF79" p-id="4356"></path><path d="M229.31 325.27c-3.36 0-6.75-1.03-9.66-3.18-7.25-5.34-8.8-15.56-3.46-22.81 44.45-60.32 115.67-96.34 190.51-96.34 9.01 0 16.31 7.3 16.31 16.31s-7.3 16.31-16.31 16.31c-64.52 0-125.92 31.05-164.25 83.07-3.19 4.34-8.13 6.64-13.14 6.64zM186.52 455.75c-9.01 0-16.31-7.3-16.31-16.31 0-33.54 6.88-65.96 20.46-96.36 3.67-8.23 13.31-11.92 21.54-8.24 8.23 3.67 11.91 13.32 8.24 21.54-11.69 26.19-17.62 54.13-17.62 83.06 0 9.01-7.3 16.31-16.31 16.31z" fill="#FFFFFF" p-id="4357"></path></svg>