<?xml version="1.0" standalone="no"?><!DOCTYPE svg PUBLIC "-//W3C//DTD SVG 1.1//EN" "http://www.w3.org/Graphics/SVG/1.1/DTD/svg11.dtd"><svg t="1632578516537" class="icon" viewBox="0 0 1024 1024" version="1.1" xmlns="http://www.w3.org/2000/svg" p-id="3570" xmlns:xlink="http://www.w3.org/1999/xlink" width="16" height="16"><defs><style type="text/css"></style></defs><path d="M945.230769 236.307692h78.769231v78.769231h-78.769231zM945.230769 157.538462h78.769231v78.76923h-78.769231zM945.230769 78.769231h78.769231v78.769231h-78.769231zM945.230769 0h78.769231v78.769231h-78.769231zM866.461538 315.076923h78.769231v78.769231h-78.769231z" fill="#1E2028" p-id="3571"></path><path d="M866.461538 236.307692h78.769231v78.769231h-78.769231z" fill="#FF9343" p-id="3572"></path><path d="M866.461538 157.538462h78.769231v78.76923h-78.769231zM866.461538 78.769231h78.769231v78.769231h-78.769231z" fill="#FFDD4D" p-id="3573"></path><path d="M866.461538 0h78.769231v78.769231h-78.769231zM787.692308 393.846154h78.76923v78.769231h-78.76923z" fill="#1E2028" p-id="3574"></path><path d="M787.692308 315.076923h78.76923v78.769231h-78.76923z" fill="#FF9343" p-id="3575"></path><path d="M787.692308 236.307692h78.76923v78.769231h-78.76923z" fill="#FFDD4D" p-id="3576"></path><path d="M787.692308 157.538462h78.76923v78.76923h-78.76923z" fill="#FFFFFF" p-id="3577"></path><path d="M787.692308 78.769231h78.76923v78.769231h-78.76923z" fill="#FFDD4D" p-id="3578"></path><path d="M787.692308 0h78.76923v78.769231h-78.76923zM708.923077 472.615385h78.769231v78.76923h-78.769231z" fill="#1E2028" p-id="3579"></path><path d="M708.923077 393.846154h78.769231v78.769231h-78.769231z" fill="#FF9343" p-id="3580"></path><path d="M708.923077 315.076923h78.769231v78.769231h-78.769231z" fill="#FFDD4D" p-id="3581"></path><path d="M708.923077 236.307692h78.769231v78.769231h-78.769231z" fill="#FFFFFF" p-id="3582"></path><path d="M708.923077 157.538462h78.769231v78.76923h-78.769231z" fill="#FFDD4D" p-id="3583"></path><path d="M708.923077 78.769231h78.769231v78.769231h-78.769231z" fill="#FFF1B6" p-id="3584"></path><path d="M708.923077 0h78.769231v78.769231h-78.769231zM630.153846 551.384615h78.769231v78.769231h-78.769231z" fill="#1E2028" p-id="3585"></path><path d="M630.153846 472.615385h78.769231v78.76923h-78.769231z" fill="#FF9343" p-id="3586"></path><path d="M630.153846 393.846154h78.769231v78.769231h-78.769231z" fill="#FFDD4D" p-id="3587"></path><path d="M630.153846 315.076923h78.769231v78.769231h-78.769231z" fill="#FFFFFF" p-id="3588"></path><path d="M630.153846 236.307692h78.769231v78.769231h-78.769231z" fill="#FFDD4D" p-id="3589"></path><path d="M630.153846 157.538462h78.769231v78.76923h-78.769231z" fill="#FFF1B6" p-id="3590"></path><path d="M630.153846 78.769231h78.769231v78.769231h-78.769231zM551.384615 866.461538h78.769231v78.769231h-78.769231zM551.384615 787.692308h78.769231v78.76923h-78.769231zM551.384615 630.153846h78.769231v78.769231h-78.769231z" fill="#1E2028" p-id="3591"></path><path d="M551.384615 551.384615h78.769231v78.769231h-78.769231z" fill="#FF9343" p-id="3592"></path><path d="M551.384615 472.615385h78.769231v78.76923h-78.769231z" fill="#FFDD4D" p-id="3593"></path><path d="M551.384615 393.846154h78.769231v78.769231h-78.769231z" fill="#FFFFFF" p-id="3594"></path><path d="M551.384615 315.076923h78.769231v78.769231h-78.769231z" fill="#FFDD4D" p-id="3595"></path><path d="M551.384615 236.307692h78.769231v78.769231h-78.769231z" fill="#FFF1B6" p-id="3596"></path><path d="M551.384615 157.538462h78.769231v78.76923h-78.769231zM472.615385 866.461538h78.76923v78.769231h-78.76923z" fill="#1E2028" p-id="3597"></path><path d="M472.615385 787.692308h78.76923v78.76923h-78.76923z" fill="#38B269" p-id="3598"></path><path d="M472.615385 708.923077h78.76923v78.769231h-78.76923z" fill="#1E2028" p-id="3599"></path><path d="M472.615385 630.153846h78.76923v78.769231h-78.76923z" fill="#FF9343" p-id="3600"></path><path d="M472.615385 551.384615h78.76923v78.769231h-78.76923z" fill="#FFDD4D" p-id="3601"></path><path d="M472.615385 472.615385h78.76923v78.76923h-78.76923z" fill="#FFFFFF" p-id="3602"></path><path d="M472.615385 393.846154h78.76923v78.769231h-78.76923z" fill="#FFDD4D" p-id="3603"></path><path d="M472.615385 315.076923h78.76923v78.769231h-78.76923z" fill="#FFF1B6" p-id="3604"></path><path d="M472.615385 236.307692h78.76923v78.769231h-78.76923zM393.846154 866.461538h78.769231v78.769231h-78.769231z" fill="#1E2028" p-id="3605"></path><path d="M393.846154 787.692308h78.769231v78.76923h-78.769231z" fill="#38B269" p-id="3606"></path><path d="M393.846154 708.923077h78.769231v78.769231h-78.769231z" fill="#60EF9A" p-id="3607"></path><path d="M393.846154 630.153846h78.769231v78.769231h-78.769231z" fill="#1E2028" p-id="3608"></path><path d="M393.846154 551.384615h78.769231v78.769231h-78.769231zM393.846154 472.615385h78.769231v78.76923h-78.769231z" fill="#FFDD4D" p-id="3609"></path><path d="M393.846154 393.846154h78.769231v78.769231h-78.769231z" fill="#FFF1B6" p-id="3610"></path><path d="M393.846154 315.076923h78.769231v78.769231h-78.769231zM315.076923 787.692308h78.769231v78.76923h-78.769231z" fill="#1E2028" p-id="3611"></path><path d="M315.076923 708.923077h78.769231v78.769231h-78.769231zM315.076923 630.153846h78.769231v78.769231h-78.769231z" fill="#60EF9A" p-id="3612"></path><path d="M315.076923 551.384615h78.769231v78.769231h-78.769231z" fill="#1E2028" p-id="3613"></path><path d="M315.076923 472.615385h78.769231v78.76923h-78.769231z" fill="#FFF1B6" p-id="3614"></path><path d="M315.076923 393.846154h78.769231v78.769231h-78.769231zM236.307692 787.692308h78.769231v78.76923h-78.769231zM236.307692 708.923077h78.769231v78.769231h-78.769231z" fill="#1E2028" p-id="3615"></path><path d="M236.307692 630.153846h78.769231v78.769231h-78.769231zM236.307692 551.384615h78.769231v78.769231h-78.769231z" fill="#60EF9A" p-id="3616"></path><path d="M236.307692 472.615385h78.769231v78.76923h-78.769231zM157.538462 866.461538h78.76923v78.769231H157.538462z" fill="#1E2028" p-id="3617"></path><path d="M157.538462 787.692308h78.76923v78.76923H157.538462z" fill="#60EF9A" p-id="3618"></path><path d="M157.538462 708.923077h78.76923v78.769231H157.538462zM157.538462 630.153846h78.76923v78.769231H157.538462z" fill="#1E2028" p-id="3619"></path><path d="M157.538462 551.384615h78.76923v78.769231H157.538462zM157.538462 472.615385h78.76923v78.76923H157.538462z" fill="#AAF2C7" p-id="3620"></path><path d="M157.538462 393.846154h78.76923v78.769231H157.538462zM78.769231 945.230769h78.769231v78.769231H78.769231z" fill="#1E2028" p-id="3621"></path><path d="M78.769231 866.461538h78.769231v78.769231H78.769231z" fill="#60EF9A" p-id="3622"></path><path d="M78.769231 787.692308h78.769231v78.76923H78.769231zM78.769231 551.384615h78.769231v78.769231H78.769231zM78.769231 472.615385h78.769231v78.76923H78.769231zM78.769231 393.846154h78.769231v78.769231H78.769231zM0 945.230769h78.769231v78.769231H0zM0 866.461538h78.769231v78.769231H0z" fill="#1E2028" p-id="3623"></path></svg>