<?xml version="1.0" standalone="no"?><!DOCTYPE svg PUBLIC "-//W3C//DTD SVG 1.1//EN" "http://www.w3.org/Graphics/SVG/1.1/DTD/svg11.dtd"><svg t="1673937472426" class="icon" viewBox="0 0 1024 1024" version="1.1" xmlns="http://www.w3.org/2000/svg" p-id="32880" xmlns:xlink="http://www.w3.org/1999/xlink" width="200" height="200"><path d="M513.0752 401.152m-112.8448 0a112.8448 112.8448 0 1 0 225.6896 0 112.8448 112.8448 0 1 0-225.6896 0Z" fill="#1296db" p-id="32881"></path><path d="M512 69.2224c-244.1728 0-442.7776 198.656-442.7776 442.7776s198.656 442.7776 442.7776 442.7776 442.7776-198.656 442.7776-442.7776S756.1728 69.2224 512 69.2224z m286.0032 703.4368c-13.4144 4.608-27.9552-2.56-32.512-15.9232-36.9664-107.776-138.3936-180.1728-252.416-180.1728-115.5584 0-217.4464 73.728-253.4912 183.4496a25.57952 25.57952 0 0 1-32.3072 16.3328 25.62048 25.62048 0 0 1-16.3328-32.3072 317.19424 317.19424 0 0 1 212.1728-205.7216c-44.5952-29.3376-74.0864-79.8208-74.0864-137.1136 0-90.4704 73.6256-164.0448 164.0448-164.0448s164.0448 73.6256 164.0448 164.0448c0 57.2928-29.5424 107.8272-74.1888 137.1648 97.1264 28.6208 176.9472 102.6048 210.9952 201.7792 4.608 13.3632-2.56 27.904-15.9232 32.512z" fill="#1296db" p-id="32882"></path><path d="M513.0752 576.5632c-115.5584 0-217.4464 73.728-253.4912 183.4496-3.4304 10.496-13.056 17.2032-23.5008 17.5616 68.4544 31.5904 145.2544 47.872 225.792 44.5952 108.2368-4.4544 206.848-43.5712 285.5936-106.24-46.08-84.8384-135.4752-139.3664-234.3936-139.3664z" fill="#1296db" p-id="32883"></path><path d="M512 69.2224c-244.1728 0-442.7776 198.656-442.7776 442.7776 0 63.5904 13.5168 124.1088 37.7344 178.8416a493.824 493.824 0 0 0 107.6224 76.1344 25.38496 25.38496 0 0 1-3.6352-22.9376 317.19424 317.19424 0 0 1 212.1728-205.7216c-44.5952-29.3376-74.0864-79.8208-74.0864-137.1136 0-90.4704 73.6256-164.0448 164.0448-164.0448s164.0448 73.6256 164.0448 164.0448c0 57.2928-29.5424 107.8272-74.1888 137.1648a318.23872 318.23872 0 0 1 183.6544 142.9504c81.9712-80.7424 135.4752-189.7984 145.1008-310.4768-59.0848-175.2064-224.8704-301.6192-419.6864-301.6192z" fill="#1296db" p-id="32884"></path><path d="M513.0752 576.5632c-68.4032 0-131.9936 25.8048-180.0192 69.632 12.3392 0.4096 24.7808 0.4096 37.2736-0.1536 78.0288-3.1744 151.04-24.4224 215.1936-59.4944a267.59168 267.59168 0 0 0-72.448-9.984z" fill="#1296db" p-id="32885"></path><path d="M512 69.2224c-244.1728 0-442.7776 198.656-442.7776 442.7776 0 16.2304 0.9216 32.256 2.6112 48.0256a489.35424 489.35424 0 0 0 196.9152 79.7184 317.29664 317.29664 0 0 1 154.4192-101.4784c-44.5952-29.3376-74.0864-79.8208-74.0864-137.1136 0-90.4704 73.6256-164.0448 164.0448-164.0448s164.0448 73.6256 164.0448 164.0448c0 57.2928-29.5424 107.8272-74.1888 137.1648 12.7488 3.7376 25.1392 8.3456 37.2224 13.568 107.8784-78.9504 181.9136-200.5504 198.1952-338.8416C757.3504 124.7232 641.024 69.2224 512 69.2224z" fill="#1296db" p-id="32886"></path><path d="M597.8624 326.7584c-20.6848-23.552-50.9952-38.4512-84.736-38.4512-62.2592 0-112.8448 50.6368-112.8448 112.8448 0 17.9712 4.2496 34.9696 11.7248 50.0736 71.4752-26.88 134.8608-69.9392 185.856-124.4672z" fill="#1296db" p-id="32887"></path><path d="M73.0112 453.9392a489.8304 489.8304 0 0 0 185.9072 28.2624c35.84-1.4848 70.6048-6.7584 103.936-15.4112-8.8064-20.1216-13.824-42.2912-13.824-65.6384 0-90.4704 73.6256-164.0448 164.0448-164.0448 46.2848 0 88.1152 19.3024 117.9648 50.2272a490.94144 490.94144 0 0 0 82.7392-169.3696A440.2432 440.2432 0 0 0 512 69.2224c-224.512 0-410.4704 167.8848-438.9888 384.7168z" fill="#1296db" p-id="32888"></path><path d="M118.0672 309.9136c19.0976 1.6896 38.5024 2.1504 58.1632 1.3824 165.8368-6.8096 306.8928-102.8608 378.8288-239.9744a444.1088 444.1088 0 0 0-43.0592-2.0992c-171.4176 0-320.3584 97.8944-393.9328 240.6912z" fill="#1296db" p-id="32889"></path></svg>